<mxfile host="app.diagrams.net" agent="Mozilla/5.0 (X11; Ubuntu; Linux x86_64; rv:129.0) Gecko/20100101 Firefox/129.0" version="26.0.10">
  <diagram name="Page-1" id="egtqB6_A-rVfAl6xzuDo">
    <mxGraphModel dx="1127" dy="1060" grid="1" gridSize="10" guides="1" tooltips="1" connect="1" arrows="1" fold="1" page="1" pageScale="1" pageWidth="827" pageHeight="1169" math="0" shadow="0">
      <root>
        <mxCell id="0" />
        <mxCell id="1" parent="0" />
        <mxCell id="N2zcTXtOys0kNxSALDwQ-2" value="&lt;font style=&quot;font-size: 19px;&quot;&gt;Kubernetess clusteur&lt;br&gt;&lt;/font&gt;" style="text;html=1;align=center;verticalAlign=middle;resizable=0;points=[];autosize=1;strokeColor=none;fillColor=none;strokeWidth=3;" parent="1" vertex="1">
          <mxGeometry x="1535" y="240" width="200" height="40" as="geometry" />
        </mxCell>
        <mxCell id="N2zcTXtOys0kNxSALDwQ-70" value="" style="whiteSpace=wrap;html=1;aspect=fixed;" parent="1" vertex="1">
          <mxGeometry x="1550" y="305" width="1025" height="1025" as="geometry" />
        </mxCell>
        <mxCell id="N2zcTXtOys0kNxSALDwQ-71" value="&lt;font style=&quot;font-size: 18px;&quot;&gt;Node : 7 Nodes&lt;br&gt;&lt;/font&gt;" style="text;html=1;align=center;verticalAlign=middle;resizable=0;points=[];autosize=1;strokeColor=none;fillColor=none;strokeWidth=3;" parent="1" vertex="1">
          <mxGeometry x="1550" y="305" width="150" height="40" as="geometry" />
        </mxCell>
        <mxCell id="N2zcTXtOys0kNxSALDwQ-72" value="" style="whiteSpace=wrap;html=1;aspect=fixed;" parent="1" vertex="1">
          <mxGeometry x="1610" y="350" width="940" height="940" as="geometry" />
        </mxCell>
        <mxCell id="N2zcTXtOys0kNxSALDwQ-73" value="&lt;font style=&quot;font-size: 18px;&quot;&gt;Namespace; rbachelier&lt;/font&gt;" style="text;html=1;align=center;verticalAlign=middle;resizable=0;points=[];autosize=1;strokeColor=none;fillColor=none;strokeWidth=3;" parent="1" vertex="1">
          <mxGeometry x="1610" y="350" width="210" height="40" as="geometry" />
        </mxCell>
        <mxCell id="N2zcTXtOys0kNxSALDwQ-74" value="" style="whiteSpace=wrap;html=1;aspect=fixed;" parent="1" vertex="1">
          <mxGeometry x="1630" y="390" width="430" height="430" as="geometry" />
        </mxCell>
        <mxCell id="N2zcTXtOys0kNxSALDwQ-75" value="" style="whiteSpace=wrap;html=1;aspect=fixed;" parent="1" vertex="1">
          <mxGeometry x="1671" y="431" width="348" height="348" as="geometry" />
        </mxCell>
        <mxCell id="N2zcTXtOys0kNxSALDwQ-76" value="Deployment: Deployment webdb&lt;span style=&quot;white-space: pre;&quot;&gt;&#x9;&lt;/span&gt; " style="text;html=1;align=center;verticalAlign=middle;resizable=0;points=[];autosize=1;strokeColor=none;fillColor=none;strokeWidth=3;" parent="1" vertex="1">
          <mxGeometry x="1686" y="431" width="210" height="30" as="geometry" />
        </mxCell>
        <mxCell id="N2zcTXtOys0kNxSALDwQ-77" value="&lt;div&gt;Pods Webdb&lt;/div&gt;&lt;div&gt;Port 5000 expose&lt;br&gt;&lt;/div&gt;" style="whiteSpace=wrap;html=1;aspect=fixed;" parent="1" vertex="1">
          <mxGeometry x="1728.5" y="501" width="90" height="90" as="geometry" />
        </mxCell>
        <mxCell id="N2zcTXtOys0kNxSALDwQ-78" value="&lt;div&gt;Pods Webdb&lt;/div&gt;&lt;div&gt;Port 5000 expose&lt;br&gt;&lt;/div&gt;" style="whiteSpace=wrap;html=1;aspect=fixed;" parent="1" vertex="1">
          <mxGeometry x="1851" y="501" width="90" height="90" as="geometry" />
        </mxCell>
        <mxCell id="N2zcTXtOys0kNxSALDwQ-79" value="&lt;div&gt;Pods Webdb&lt;/div&gt;&lt;div&gt;Port 5000 expose&lt;br&gt;&lt;/div&gt;" style="whiteSpace=wrap;html=1;aspect=fixed;" parent="1" vertex="1">
          <mxGeometry x="1731" y="616" width="90" height="90" as="geometry" />
        </mxCell>
        <UserObject label="10.42.0.202" link="10.152.0.6" id="N2zcTXtOys0kNxSALDwQ-80">
          <mxCell style="text;whiteSpace=wrap;" parent="1" vertex="1">
            <mxGeometry x="1736" y="471" width="75" height="20" as="geometry" />
          </mxCell>
        </UserObject>
        <UserObject label="10.42.1.76" link="10.152.0.6" id="N2zcTXtOys0kNxSALDwQ-81">
          <mxCell style="text;whiteSpace=wrap;" parent="1" vertex="1">
            <mxGeometry x="1858.5" y="471" width="75" height="20" as="geometry" />
          </mxCell>
        </UserObject>
        <UserObject label="10.42.2.63" link="10.152.0.6" id="N2zcTXtOys0kNxSALDwQ-82">
          <mxCell style="text;whiteSpace=wrap;" parent="1" vertex="1">
            <mxGeometry x="1738.5" y="591" width="75" height="20" as="geometry" />
          </mxCell>
        </UserObject>
        <mxCell id="N2zcTXtOys0kNxSALDwQ-83" value="Replicaset : 3" style="text;html=1;align=center;verticalAlign=middle;resizable=0;points=[];autosize=1;strokeColor=none;fillColor=none;strokeWidth=3;" parent="1" vertex="1">
          <mxGeometry x="1630" y="390" width="100" height="30" as="geometry" />
        </mxCell>
        <mxCell id="N2zcTXtOys0kNxSALDwQ-90" value="" style="whiteSpace=wrap;html=1;aspect=fixed;" parent="1" vertex="1">
          <mxGeometry x="2080" y="390" width="430" height="430" as="geometry" />
        </mxCell>
        <mxCell id="N2zcTXtOys0kNxSALDwQ-91" value="" style="whiteSpace=wrap;html=1;aspect=fixed;" parent="1" vertex="1">
          <mxGeometry x="2121" y="431" width="348" height="348" as="geometry" />
        </mxCell>
        <mxCell id="N2zcTXtOys0kNxSALDwQ-92" value="Deployment: Deployment mongodb&lt;span style=&quot;white-space: pre;&quot;&gt;&#x9;&lt;/span&gt; " style="text;html=1;align=center;verticalAlign=middle;resizable=0;points=[];autosize=1;strokeColor=none;fillColor=none;strokeWidth=3;" parent="1" vertex="1">
          <mxGeometry x="2121" y="431" width="240" height="30" as="geometry" />
        </mxCell>
        <mxCell id="N2zcTXtOys0kNxSALDwQ-93" value="&lt;div&gt;Pods mongodb&lt;br&gt;&lt;/div&gt;&lt;div&gt;Port 27017&lt;/div&gt;&lt;div&gt;expose&lt;br&gt;&lt;/div&gt;" style="whiteSpace=wrap;html=1;aspect=fixed;" parent="1" vertex="1">
          <mxGeometry x="2171" y="510" width="90" height="90" as="geometry" />
        </mxCell>
        <mxCell id="N2zcTXtOys0kNxSALDwQ-94" value="Replicaset : 1" style="text;html=1;align=center;verticalAlign=middle;resizable=0;points=[];autosize=1;strokeColor=none;fillColor=none;strokeWidth=3;" parent="1" vertex="1">
          <mxGeometry x="2080" y="390" width="100" height="30" as="geometry" />
        </mxCell>
        <UserObject label="10.42.0.197" link="10.152.0.6" id="N2zcTXtOys0kNxSALDwQ-95">
          <mxCell style="text;whiteSpace=wrap;" parent="1" vertex="1">
            <mxGeometry x="2173.5" y="480" width="90" height="40" as="geometry" />
          </mxCell>
        </UserObject>
        <mxCell id="N2zcTXtOys0kNxSALDwQ-97" value="&lt;div&gt;Service NodePort&lt;br&gt;&lt;/div&gt;&lt;div&gt;Webdb-service &lt;br&gt;&lt;/div&gt;&lt;div&gt;[Any Node]:31470&lt;/div&gt;" style="whiteSpace=wrap;html=1;aspect=fixed;" parent="1" vertex="1">
          <mxGeometry x="1840" y="900" width="155" height="155" as="geometry" />
        </mxCell>
        <mxCell id="N2zcTXtOys0kNxSALDwQ-98" value="&lt;div&gt;Service ClusterIp&lt;br&gt;&lt;/div&gt;&lt;div&gt;mongodb-service&lt;br&gt;&lt;/div&gt;&lt;div&gt;&lt;span&gt;10.43.112.236:27017&lt;/span&gt;&lt;/div&gt;" style="whiteSpace=wrap;html=1;aspect=fixed;" parent="1" vertex="1">
          <mxGeometry x="2163.5" y="900" width="155" height="155" as="geometry" />
        </mxCell>
        <mxCell id="0pdMo5nkZRStISpneGYc-1" value="" style="endArrow=classic;html=1;rounded=0;exitX=0.823;exitY=1.003;exitDx=0;exitDy=0;entryX=0.25;entryY=0;entryDx=0;entryDy=0;exitPerimeter=0;" edge="1" parent="1" source="N2zcTXtOys0kNxSALDwQ-75" target="N2zcTXtOys0kNxSALDwQ-98">
          <mxGeometry width="50" height="50" relative="1" as="geometry">
            <mxPoint x="1990" y="700" as="sourcePoint" />
            <mxPoint x="2040" y="650" as="targetPoint" />
          </mxGeometry>
        </mxCell>
        <mxCell id="0pdMo5nkZRStISpneGYc-2" value="" style="endArrow=classic;html=1;rounded=0;entryX=0.5;entryY=1;entryDx=0;entryDy=0;exitX=0.5;exitY=0;exitDx=0;exitDy=0;" edge="1" parent="1" source="N2zcTXtOys0kNxSALDwQ-97" target="N2zcTXtOys0kNxSALDwQ-75">
          <mxGeometry width="50" height="50" relative="1" as="geometry">
            <mxPoint x="1990" y="700" as="sourcePoint" />
            <mxPoint x="2040" y="650" as="targetPoint" />
          </mxGeometry>
        </mxCell>
        <mxCell id="0pdMo5nkZRStISpneGYc-4" value="" style="endArrow=classic;html=1;rounded=0;entryX=0.5;entryY=1;entryDx=0;entryDy=0;exitX=0.5;exitY=0;exitDx=0;exitDy=0;" edge="1" parent="1" source="N2zcTXtOys0kNxSALDwQ-98" target="N2zcTXtOys0kNxSALDwQ-93">
          <mxGeometry width="50" height="50" relative="1" as="geometry">
            <mxPoint x="1990" y="790" as="sourcePoint" />
            <mxPoint x="2040" y="740" as="targetPoint" />
          </mxGeometry>
        </mxCell>
      </root>
    </mxGraphModel>
  </diagram>
</mxfile>
